<svg width="20" height="20" viewBox="0 0 20 20" fill="none" xmlns="http://www.w3.org/2000/svg">
<path d="M2.5 5.16667C2.5 4.23333 2.5 3.76667 2.68167 3.41C2.84145 3.09641 3.09641 2.84145 3.41 2.68167C3.76667 2.5 4.23333 2.5 5.16667 2.5H14.8333C15.7667 2.5 16.2333 2.5 16.59 2.68167C16.9036 2.84145 17.1585 3.09641 17.3183 3.41C17.5 3.76667 17.5 4.23333 17.5 5.16667V14.8333C17.5 15.7667 17.5 16.2333 17.3183 16.59C17.1585 16.9036 16.9036 17.1585 16.59 17.3183C16.2333 17.5 15.7667 17.5 14.8333 17.5H5.16667C4.23333 17.5 3.76667 17.5 3.41 17.3183C3.09641 17.1585 2.84145 16.9036 2.68167 16.59C2.5 16.2333 2.5 15.7667 2.5 14.8333V5.16667Z" stroke="white" stroke-width="2" stroke-linecap="round"/>
<path d="M15.8333 17.5L12.5 5.41667M17.5 5L2.5 6.66667M10.8333 11.74C10.8333 13.2733 9.38417 14.3608 8.6925 14.7933C8.58491 14.861 8.46041 14.8968 8.33333 14.8968C8.20626 14.8968 8.08176 14.861 7.97417 14.7933C7.2825 14.3608 5.83333 13.2725 5.83333 11.74C5.83333 10.1958 7.045 9.16667 8.33333 9.16667C9.66667 9.16667 10.8333 10.1958 10.8333 11.74Z" stroke="white" stroke-width="2"/>
</svg>
