<svg width="16" height="16" viewBox="0 0 16 16" fill="none" xmlns="http://www.w3.org/2000/svg">
<path fill-rule="evenodd" clip-rule="evenodd" d="M9.33328 1.33301C10.6833 1.33301 11.7777 2.42741 11.7777 3.77745C11.7777 4.22276 11.659 4.64001 11.4506 4.99982C11.2422 5.35963 9.33328 8.66635 9.33328 8.66635C9.33328 8.66635 7.42431 5.35963 7.21593 4.99982C7.00756 4.64001 6.88884 4.22276 6.88884 3.77745C6.88884 2.42745 7.98325 1.33301 9.33328 1.33301ZM10.3808 3.77745C10.3808 4.35604 9.91181 4.82507 9.33321 4.82507C8.75465 4.82507 8.28562 4.35604 8.28562 3.77745C8.28562 3.19888 8.75465 2.72985 9.33321 2.72985C9.91178 2.72985 10.3808 3.19888 10.3808 3.77745ZM6.03343 6.00295H1.50015L4.61543 10.1567L7.21481 7.84607C6.78437 7.25616 6.37568 6.64798 6.03343 6.00295ZM10.889 10.0029H14.6668V13.333H14.0636L10.889 10.0029ZM12.2223 13.333H7.00015L5.41821 11.227L8.01515 8.91866L12.2223 13.333ZM1.3335 8.00294L5.3335 13.333H1.3335V8.00294ZM14.6669 6.00295H12.6335L10.8263 8.6696H14.6669V6.00295Z" fill="black"/>
</svg>
