<svg width="76" height="55" viewBox="0 0 76 55" fill="none" xmlns="http://www.w3.org/2000/svg">
<g clip-path="url(#clip0_2483_1780)">
<path d="M24 0.5H13C12.1716 0.5 11.5 1.17157 11.5 2V6C11.5 6.82843 12.1716 7.5 13 7.5H24C24.8284 7.5 25.5 6.82843 25.5 6V2C25.5 1.17157 24.8284 0.5 24 0.5Z" fill="#747070" stroke="black"/>
<path d="M24 47.5H13C12.1716 47.5 11.5 48.1716 11.5 49V53C11.5 53.8284 12.1716 54.5 13 54.5H24C24.8284 54.5 25.5 53.8284 25.5 53V49C25.5 48.1716 24.8284 47.5 24 47.5Z" fill="#747070" stroke="black"/>
<path d="M65 47.5H54C53.1716 47.5 52.5 48.1716 52.5 49V53C52.5 53.8284 53.1716 54.5 54 54.5H65C65.8284 54.5 66.5 53.8284 66.5 53V49C66.5 48.1716 65.8284 47.5 65 47.5Z" fill="#747070" stroke="black"/>
<path d="M65 0.5H54C53.1716 0.5 52.5 1.17157 52.5 2V6C52.5 6.82843 53.1716 7.5 54 7.5H65C65.8284 7.5 66.5 6.82843 66.5 6V2C66.5 1.17157 65.8284 0.5 65 0.5Z" fill="#747070" stroke="black"/>
<path d="M6 4.5H70C73.0376 4.5 75.5 6.96243 75.5 10V45C75.5 48.0376 73.0376 50.5 70 50.5H6C2.96243 50.5 0.5 48.0376 0.5 45V10C0.5 6.96243 2.96243 4.5 6 4.5Z" fill="#F5ADAE" stroke="black"/>
<path d="M54.5 27C54.5 35.546 47.3512 42.5 38.5 42.5C29.6488 42.5 22.5 35.546 22.5 27C22.5 18.454 29.6488 11.5 38.5 11.5C47.3512 11.5 54.5 18.454 54.5 27Z" fill="#DE4E4E" fill-opacity="0.5" stroke="black"/>
</g>
<defs>
<clipPath id="clip0_2483_1780">
<rect width="76" height="55" fill="white"/>
</clipPath>
</defs>
</svg>
