<svg width="50" height="50" viewBox="0 0 50 50" fill="none" xmlns="http://www.w3.org/2000/svg">
<circle cx="25" cy="25" r="15" fill="#405F2C"/>
<path d="M31.098 22.5469H27.9872C27.9304 22.1444 27.8144 21.7869 27.6392 21.4744C27.464 21.1572 27.2391 20.8873 26.9645 20.6648C26.6899 20.4422 26.3726 20.2718 26.0128 20.1534C25.6577 20.035 25.2718 19.9759 24.8551 19.9759C24.1023 19.9759 23.4465 20.1629 22.8878 20.5369C22.3291 20.9062 21.8958 21.446 21.5881 22.1562C21.2803 22.8617 21.1264 23.7187 21.1264 24.7273C21.1264 25.7642 21.2803 26.6354 21.5881 27.3409C21.9006 28.0464 22.3362 28.5791 22.8949 28.9389C23.4536 29.2988 24.0999 29.4787 24.8338 29.4787C25.2457 29.4787 25.6269 29.4242 25.9773 29.3153C26.3324 29.2064 26.6473 29.0478 26.9219 28.8395C27.1965 28.6264 27.4238 28.3684 27.6037 28.0653C27.7884 27.7623 27.9162 27.4167 27.9872 27.0284L31.098 27.0426C31.0175 27.7102 30.8163 28.3542 30.4943 28.9744C30.1771 29.59 29.7486 30.1416 29.2088 30.6293C28.6738 31.1122 28.0346 31.4957 27.2912 31.7798C26.5526 32.0592 25.7169 32.1989 24.7841 32.1989C23.4867 32.1989 22.3267 31.9053 21.304 31.3182C20.286 30.7311 19.4811 29.8812 18.8892 28.7685C18.3021 27.6558 18.0085 26.3087 18.0085 24.7273C18.0085 23.1411 18.3068 21.7917 18.9034 20.679C19.5 19.5663 20.3097 18.7187 21.3324 18.1364C22.3551 17.5492 23.5057 17.2557 24.7841 17.2557C25.6269 17.2557 26.4081 17.3741 27.1278 17.6108C27.8523 17.8475 28.4938 18.1932 29.0526 18.6477C29.6113 19.0975 30.0658 19.6491 30.4162 20.3026C30.7713 20.956 30.9986 21.7041 31.098 22.5469Z" fill="white"/>
</svg>
