<svg width="50" height="50" viewBox="0 0 50 50" fill="none" xmlns="http://www.w3.org/2000/svg">
<circle cx="25" cy="25" r="15" fill="#405F2C"/>
<path d="M24.4205 32H19.2642V17.4545H24.4631C25.9261 17.4545 27.1856 17.7457 28.2415 18.3281C29.2973 18.9058 30.1094 19.7367 30.6776 20.821C31.2505 21.9053 31.5369 23.2027 31.5369 24.7131C31.5369 26.2282 31.2505 27.5303 30.6776 28.6193C30.1094 29.7083 29.2926 30.544 28.2273 31.1264C27.1667 31.7088 25.8977 32 24.4205 32ZM22.3395 29.3651H24.2926C25.2017 29.3651 25.9664 29.2041 26.5866 28.8821C27.2116 28.5554 27.6804 28.0511 27.9929 27.3693C28.3101 26.6828 28.4688 25.7973 28.4688 24.7131C28.4688 23.6383 28.3101 22.7599 27.9929 22.0781C27.6804 21.3963 27.214 20.8944 26.5938 20.5724C25.9735 20.2505 25.2088 20.0895 24.2997 20.0895H22.3395V29.3651Z" fill="white"/>
</svg>
