<svg width="75" height="13" viewBox="0 0 75 13" fill="none" xmlns="http://www.w3.org/2000/svg">
<path d="M9.75 4.33337C9.75 6.29042 7.65429 8.35742 6.82879 9.09733C6.73436 9.16946 6.61883 9.20854 6.5 9.20854C6.38117 9.20854 6.26564 9.16946 6.17121 9.09733C5.34625 8.35742 3.25 6.29042 3.25 4.33337C3.25 3.47142 3.59241 2.64477 4.2019 2.03528C4.8114 1.42578 5.63805 1.08337 6.5 1.08337C7.36195 1.08337 8.1886 1.42578 8.7981 2.03528C9.40759 2.64477 9.75 3.47142 9.75 4.33337Z" stroke="#4C7BDF" stroke-linecap="round" stroke-linejoin="round"/>
<path d="M6.50033 5.41667C7.09863 5.41667 7.58366 4.93164 7.58366 4.33333C7.58366 3.73502 7.09863 3.25 6.50033 3.25C5.90202 3.25 5.41699 3.73502 5.41699 4.33333C5.41699 4.93164 5.90202 5.41667 6.50033 5.41667Z" stroke="#4C7BDF" stroke-linecap="round" stroke-linejoin="round"/>
<path d="M4.7205 7.58337H2.71092C2.59735 7.58342 2.48667 7.61917 2.39452 7.68556C2.30237 7.75195 2.23342 7.84562 2.19742 7.95333L1.11192 11.2033C1.08471 11.2848 1.07724 11.3715 1.09012 11.4563C1.10301 11.5412 1.13588 11.6218 1.18603 11.6915C1.23618 11.7612 1.30218 11.8179 1.37857 11.8571C1.45497 11.8962 1.53957 11.9167 1.62542 11.9167H11.3754C11.4612 11.9166 11.5457 11.8962 11.6221 11.8571C11.6984 11.8179 11.7644 11.7612 11.8145 11.6916C11.8647 11.622 11.8975 11.5415 11.9105 11.4567C11.9234 11.3719 11.916 11.2853 11.8889 11.2039L10.8056 7.95387C10.7696 7.84597 10.7007 7.75212 10.6084 7.68562C10.5161 7.61912 10.4053 7.58335 10.2915 7.58337H8.28088" stroke="#4C7BDF" stroke-linecap="round" stroke-linejoin="round"/>
<path d="M19.3326 10.12C18.4926 10.12 17.8326 9.82667 17.3526 9.24C16.8726 8.64667 16.6326 7.75667 16.6326 6.57C16.6326 5.37667 16.8726 4.48667 17.3526 3.9C17.8326 3.31333 18.4926 3.02 19.3326 3.02C20.1726 3.02 20.8326 3.31333 21.3126 3.9C21.7926 4.48667 22.0326 5.37667 22.0326 6.57C22.0326 7.75667 21.7926 8.64667 21.3126 9.24C20.8326 9.82667 20.1726 10.12 19.3326 10.12ZM19.3326 9.31C19.8859 9.31 20.3192 9.10333 20.6326 8.69C20.9526 8.27667 21.1126 7.65333 21.1126 6.82V6.32C21.1126 5.48667 20.9526 4.86333 20.6326 4.45C20.3192 4.03667 19.8859 3.83 19.3326 3.83C18.7859 3.83 18.3526 4.03667 18.0326 4.45C17.7126 4.86333 17.5526 5.48667 17.5526 6.32V6.82C17.5526 7.65333 17.7126 8.27667 18.0326 8.69C18.3526 9.10333 18.7859 9.31 19.3326 9.31ZM23.2195 10V3.14H25.6695C26.1229 3.14 26.4995 3.22333 26.7995 3.39C27.1062 3.55667 27.3362 3.79 27.4895 4.09C27.6429 4.39 27.7195 4.74 27.7195 5.14C27.7195 5.54 27.6362 5.89333 27.4695 6.2C27.3029 6.50667 27.0662 6.74667 26.7595 6.92C26.4595 7.08667 26.0962 7.17 25.6695 7.17H24.0995V10H23.2195ZM24.0995 6.37H25.6395C25.9929 6.37 26.2729 6.25667 26.4795 6.03C26.6929 5.80333 26.7995 5.50667 26.7995 5.14C26.7995 4.76667 26.6995 4.47333 26.4995 4.26C26.2995 4.04667 26.0129 3.94 25.6395 3.94H24.0995V6.37ZM28.6883 10V3.14H32.9183V3.94H29.5683V6.09H32.4783V6.89H29.5683V9.2H32.9783V10H28.6883ZM34.157 10V3.14H36.917C37.5904 3.14 38.1004 3.31667 38.447 3.67C38.7937 4.01667 38.967 4.47333 38.967 5.04C38.967 5.46667 38.8604 5.83667 38.647 6.15C38.4337 6.45667 38.1337 6.67667 37.747 6.81L39.127 10H38.147L36.877 6.97H35.037V10H34.157ZM35.037 6.17H36.887C37.2404 6.17 37.5204 6.06667 37.727 5.86C37.9404 5.65333 38.047 5.38 38.047 5.04C38.047 4.7 37.947 4.43333 37.747 4.24C37.547 4.04 37.2604 3.94 36.887 3.94H35.037V6.17ZM39.365 10L41.545 3.14H42.675L44.855 10H43.905L43.435 8.47H40.715L40.245 10H39.365ZM40.955 7.67H43.185L42.255 4.62C42.235 4.54 42.2117 4.44 42.185 4.32C42.1583 4.2 42.135 4.09333 42.115 4C42.1017 3.90667 42.095 3.86 42.095 3.86H42.055C42.055 3.86 42.045 3.91 42.025 4.01C42.0117 4.10333 41.9917 4.21 41.965 4.33C41.945 4.45 41.9217 4.54667 41.895 4.62L40.955 7.67ZM46.308 10V3.94H44.438V3.14H49.058V3.94H47.188V10H46.308ZM49.9578 10V3.14H50.8378V10H49.9578ZM54.7232 10.12C53.8832 10.12 53.2232 9.82667 52.7432 9.24C52.2632 8.64667 52.0232 7.75667 52.0232 6.57C52.0232 5.37667 52.2632 4.48667 52.7432 3.9C53.2232 3.31333 53.8832 3.02 54.7232 3.02C55.5632 3.02 56.2232 3.31333 56.7032 3.9C57.1832 4.48667 57.4232 5.37667 57.4232 6.57C57.4232 7.75667 57.1832 8.64667 56.7032 9.24C56.2232 9.82667 55.5632 10.12 54.7232 10.12ZM54.7232 9.31C55.2765 9.31 55.7099 9.10333 56.0232 8.69C56.3432 8.27667 56.5032 7.65333 56.5032 6.82V6.32C56.5032 5.48667 56.3432 4.86333 56.0232 4.45C55.7099 4.03667 55.2765 3.83 54.7232 3.83C54.1765 3.83 53.7432 4.03667 53.4232 4.45C53.1032 4.86333 52.9432 5.48667 52.9432 6.32V6.82C52.9432 7.65333 53.1032 8.27667 53.4232 8.69C53.7432 9.10333 54.1765 9.31 54.7232 9.31ZM58.6102 10V3.14H59.3702L61.9202 7.45C61.9735 7.53667 62.0302 7.65333 62.0902 7.8C62.1568 7.94667 62.2135 8.08 62.2602 8.2C62.3135 8.31333 62.3402 8.37 62.3402 8.37L62.3702 8.36C62.3702 8.36 62.3668 8.3 62.3602 8.18C62.3602 8.06 62.3568 7.92667 62.3502 7.78C62.3435 7.63333 62.3402 7.52333 62.3402 7.45V3.14H63.1302V10H62.4002L59.8302 5.63C59.7768 5.53 59.7135 5.41 59.6402 5.27C59.5735 5.12333 59.5135 4.99333 59.4602 4.88C59.4135 4.76667 59.3902 4.71 59.3902 4.71L59.3602 4.72C59.3602 4.72 59.3635 4.77667 59.3702 4.89C59.3768 5.00333 59.3835 5.13333 59.3902 5.28C59.3968 5.42 59.4002 5.53667 59.4002 5.63V10H58.6102ZM63.8181 10L65.9981 3.14H67.1281L69.3081 10H68.3581L67.8881 8.47H65.1681L64.6981 10H63.8181ZM65.4081 7.67H67.6381L66.7081 4.62C66.6881 4.54 66.6648 4.44 66.6381 4.32C66.6115 4.2 66.5881 4.09333 66.5681 4C66.5548 3.90667 66.5481 3.86 66.5481 3.86H66.5081C66.5081 3.86 66.4981 3.91 66.4781 4.01C66.4648 4.10333 66.4448 4.21 66.4181 4.33C66.3981 4.45 66.3748 4.54667 66.3481 4.62L65.4081 7.67ZM69.9969 10V3.14H70.8769V9.2H73.6769V10H69.9969Z" fill="#4C7BDF"/>
</svg>
