<svg width="65" height="13" viewBox="0 0 65 13" fill="none" xmlns="http://www.w3.org/2000/svg">
<path d="M6.49958 0C5.52228 0 4.72697 0.795152 4.72697 1.77226C4.72697 2.74936 5.52228 3.54451 6.49958 3.54451C7.47688 3.54451 8.27219 2.74936 8.27219 1.77226C8.27219 0.795152 7.47688 0 6.49958 0ZM7.09045 3.60566V7.08902H5.90871V3.60682C5.70309 3.65053 5.50019 3.71491 5.30284 3.80412L0.6705 5.88906C0.274616 6.06746 0.0176984 6.46048 0.00115404 6.91595C-0.0153903 7.37496 0.213083 7.7891 0.600103 7.99822L4.54809 10.1339C5.15905 10.4648 5.8301 10.6301 6.50073 10.6301C7.17137 10.6301 7.84126 10.4642 8.45222 10.1339L12.4002 7.99822C12.7866 7.7891 13.0157 7.37496 12.9992 6.91595C12.982 6.46048 12.7251 6.06746 12.3287 5.88906L7.69632 3.80296C7.49897 3.71376 7.29607 3.64938 7.09045 3.60566ZM3.84066 6.49827C4.3299 6.49827 4.72697 6.76293 4.72697 7.08902C4.72697 7.41512 4.3299 7.67977 3.84066 7.67977C3.35142 7.67977 2.95435 7.41512 2.95435 7.08902C2.95435 6.76293 3.35142 6.49827 3.84066 6.49827ZM0.210036 9.16242C0.0986939 9.16666 0 9.25786 0 9.3828V9.81548C0 10.1428 0.185266 10.4421 0.478929 10.5874L4.31036 12.4831C5.00581 12.8275 5.75213 13 6.49958 13C7.24644 13 7.99276 12.8275 8.6888 12.4831L12.5248 10.5851C12.815 10.4415 12.9992 10.1455 12.9992 9.8224V9.38395C12.9992 9.21736 12.8226 9.1098 12.676 9.18896C11.7271 9.70291 9.01424 11.1735 9.01424 11.1735C8.24198 11.5912 7.37289 11.8116 6.49958 11.8116C5.62627 11.8116 4.75718 11.5912 3.98492 11.1735C3.98492 11.1735 1.27207 9.70291 0.323133 9.18896C0.286499 9.16902 0.24715 9.16101 0.210036 9.16242Z" fill="#FF4C4C"/>
<path d="M17.969 10.62C17.5557 10.62 17.1724 10.5533 16.819 10.42C16.4657 10.2867 16.1824 10.07 15.969 9.77C15.7624 9.47 15.659 9.06667 15.659 8.56C15.659 8.52667 15.659 8.49 15.659 8.45C15.6657 8.40333 15.669 8.37333 15.669 8.36H16.579C16.579 8.36667 16.5757 8.39667 16.569 8.45C16.569 8.49667 16.569 8.53667 16.569 8.57C16.569 8.99 16.699 9.30333 16.959 9.51C17.219 9.71 17.5424 9.81 17.929 9.81C18.389 9.81 18.7424 9.71333 18.989 9.52C19.2424 9.32 19.369 9.03667 19.369 8.67C19.369 8.42333 19.3024 8.22333 19.169 8.07C19.0424 7.91667 18.8724 7.79 18.659 7.69C18.4524 7.59 18.2224 7.5 17.969 7.42C17.7157 7.34 17.459 7.25333 17.199 7.16C16.9457 7.06667 16.7124 6.94667 16.499 6.8C16.2924 6.65333 16.1224 6.46667 15.989 6.24C15.8624 6.00667 15.799 5.71333 15.799 5.36C15.799 4.94 15.8957 4.59333 16.089 4.32C16.289 4.04667 16.5524 3.84667 16.879 3.72C17.2124 3.58667 17.579 3.52 17.979 3.52C18.379 3.52 18.739 3.58667 19.059 3.72C19.3857 3.84667 19.6457 4.05333 19.839 4.34C20.0324 4.62 20.129 4.99 20.129 5.45V5.57H19.219V5.42C19.219 5.06667 19.1024 4.79667 18.869 4.61C18.6357 4.42333 18.3457 4.33 17.999 4.33C17.639 4.33 17.3357 4.40667 17.089 4.56C16.849 4.71333 16.729 4.95667 16.729 5.29C16.729 5.52333 16.7924 5.71333 16.919 5.86C17.0524 6.00667 17.2224 6.13 17.429 6.23C17.6424 6.32333 17.8757 6.41 18.129 6.49C18.3824 6.57 18.6357 6.65667 18.889 6.75C19.1424 6.84333 19.3724 6.96333 19.579 7.11C19.7924 7.25667 19.9624 7.44333 20.089 7.67C20.2224 7.89 20.289 8.17333 20.289 8.52C20.289 9.03333 20.1857 9.44333 19.979 9.75C19.779 10.0567 19.5057 10.28 19.159 10.42C18.8124 10.5533 18.4157 10.62 17.969 10.62ZM21.4178 10.5V3.64H22.2978V10.5H21.4178ZM23.6132 10.5V3.64H24.9532L26.1632 8.14C26.1965 8.26667 26.2265 8.41667 26.2532 8.59C26.2798 8.76333 26.3032 8.93333 26.3232 9.1C26.3498 9.26667 26.3665 9.40667 26.3732 9.52C26.3865 9.62667 26.3932 9.68 26.3932 9.68H26.4332C26.4332 9.68 26.4365 9.62333 26.4432 9.51C26.4565 9.39667 26.4732 9.25667 26.4932 9.09C26.5132 8.92333 26.5365 8.75333 26.5632 8.58C26.5898 8.40667 26.6198 8.26 26.6532 8.14L27.8732 3.64H29.2032V10.5H28.3232V5.52C28.3232 5.46 28.3265 5.37333 28.3332 5.26C28.3398 5.14 28.3465 5.02 28.3532 4.9C28.3665 4.78 28.3765 4.67667 28.3832 4.59C28.3898 4.50333 28.3932 4.46 28.3932 4.46H28.3532C28.3532 4.46 28.3432 4.50333 28.3232 4.59C28.3098 4.67667 28.2898 4.78 28.2632 4.9C28.2365 5.02 28.2098 5.14 28.1832 5.26C28.1632 5.37333 28.1432 5.46 28.1232 5.52L26.7532 10.5H25.9632L24.5932 5.52C24.5798 5.47333 24.5598 5.39333 24.5332 5.28C24.5132 5.16667 24.4898 5.04667 24.4632 4.92C24.4432 4.79333 24.4232 4.68667 24.4032 4.6C24.3898 4.50667 24.3832 4.46 24.3832 4.46H24.3432C24.3432 4.46 24.3465 4.50667 24.3532 4.6C24.3598 4.68667 24.3665 4.79333 24.3732 4.92C24.3798 5.04 24.3865 5.15667 24.3932 5.27C24.3998 5.38333 24.4032 5.46667 24.4032 5.52V10.5H23.6132ZM32.7793 10.62C32.0727 10.62 31.5193 10.42 31.1193 10.02C30.7193 9.62 30.5193 9.03667 30.5193 8.27V3.64H31.3993V8.32C31.3993 8.80667 31.5227 9.17667 31.7693 9.43C32.016 9.68333 32.3527 9.81 32.7793 9.81C33.2127 9.81 33.5493 9.68333 33.7893 9.43C34.036 9.17667 34.1593 8.80667 34.1593 8.32V3.64H35.0393V8.27C35.0393 9.03667 34.8393 9.62 34.4393 10.02C34.0393 10.42 33.486 10.62 32.7793 10.62ZM36.4373 10.5V3.64H37.3173V9.7H40.1173V10.5H36.4373ZM40.2879 10.5L42.4679 3.64H43.5979L45.7779 10.5H44.8279L44.3579 8.97H41.6379L41.1679 10.5H40.2879ZM41.8779 8.17H44.1079L43.1779 5.12C43.1579 5.04 43.1345 4.94 43.1079 4.82C43.0812 4.7 43.0579 4.59333 43.0379 4.5C43.0245 4.40667 43.0179 4.36 43.0179 4.36H42.9779C42.9779 4.36 42.9679 4.41 42.9479 4.51C42.9345 4.60333 42.9145 4.71 42.8879 4.83C42.8679 4.95 42.8445 5.04667 42.8179 5.12L41.8779 8.17ZM47.2309 10.5V4.44H45.3609V3.64H49.9809V4.44H48.1109V10.5H47.2309ZM50.8807 10.5V3.64H51.7607V10.5H50.8807ZM55.6461 10.62C54.8061 10.62 54.1461 10.3267 53.6661 9.74C53.1861 9.14667 52.9461 8.25667 52.9461 7.07C52.9461 5.87667 53.1861 4.98667 53.6661 4.4C54.1461 3.81333 54.8061 3.52 55.6461 3.52C56.4861 3.52 57.1461 3.81333 57.6261 4.4C58.1061 4.98667 58.3461 5.87667 58.3461 7.07C58.3461 8.25667 58.1061 9.14667 57.6261 9.74C57.1461 10.3267 56.4861 10.62 55.6461 10.62ZM55.6461 9.81C56.1994 9.81 56.6327 9.60333 56.9461 9.19C57.2661 8.77667 57.4261 8.15333 57.4261 7.32V6.82C57.4261 5.98667 57.2661 5.36333 56.9461 4.95C56.6327 4.53667 56.1994 4.33 55.6461 4.33C55.0994 4.33 54.6661 4.53667 54.3461 4.95C54.0261 5.36333 53.8661 5.98667 53.8661 6.82V7.32C53.8661 8.15333 54.0261 8.77667 54.3461 9.19C54.6661 9.60333 55.0994 9.81 55.6461 9.81ZM59.533 10.5V3.64H60.293L62.843 7.95C62.8963 8.03667 62.953 8.15333 63.013 8.3C63.0797 8.44667 63.1363 8.58 63.183 8.7C63.2363 8.81333 63.263 8.87 63.263 8.87L63.293 8.86C63.293 8.86 63.2897 8.8 63.283 8.68C63.283 8.56 63.2797 8.42667 63.273 8.28C63.2663 8.13333 63.263 8.02333 63.263 7.95V3.64H64.053V10.5H63.323L60.753 6.13C60.6997 6.03 60.6363 5.91 60.563 5.77C60.4963 5.62333 60.4363 5.49333 60.383 5.38C60.3363 5.26667 60.313 5.21 60.313 5.21L60.283 5.22C60.283 5.22 60.2863 5.27667 60.293 5.39C60.2997 5.50333 60.3063 5.63333 60.313 5.78C60.3197 5.92 60.323 6.03667 60.323 6.13V10.5H59.533Z" fill="#FF4C4C"/>
</svg>
